<?xml version="1.0" encoding="UTF-8"?>
<svg width="262px" height="256px" viewBox="0 0 262 256" version="1.1" xmlns="http://www.w3.org/2000/svg" xmlns:xlink="http://www.w3.org/1999/xlink">
    <title>Icons/design tools</title>
    <g id="Icons/design-tools" stroke="none" stroke-width="1" fill="none" fill-rule="evenodd" stroke-linecap="round" stroke-linejoin="round">
        <g id="design-tools" fill-rule="nonzero" stroke="#0D052C">
            <g id="brush" transform="translate(1.000000, 10.000000)">
                <g id="brush-2" transform="translate(0.000000, 176.000000)" stroke-width="1.5">
                    <path d="M80.58,18.88 C80.58,18.88 85.73,50.51 57.25,63.42 C32.57,74.61 8.77,66.35 1.16,61.74 C0.901257253,61.6146852 0.736917421,61.3524919 0.736917421,61.065 C0.736917421,60.7775081 0.901257253,60.5153148 1.16,60.39 C11.62,55.83 11.27,53.76 16.71,28.06 C23.53,-4.22 60.51,-0.18 61.82,1.06 L80.58,18.88 Z" id="brush-3" fill="#FF81AF"></path>
                    <g id="brush_lines" transform="translate(19.000000, 9.000000)">
                        <path d="M39,12.46 C37.8386551,15.8351776 35.6931599,18.7852334 32.84,20.93 C29.91,23.11 26.4,24.34 23.11,25.93 C19.82,27.52 16.54,29.72 15,33" id="Path"></path>
                        <path d="M26.49,2.15 C28.5321995,1.48191434 30.6474314,1.06222548 32.79,0.9" id="Path"></path>
                        <path d="M2.79,31.63 C2.79,31.63 5.55,9.25 21.67,4.22" id="Path"></path>
                        <path d="M23.66,47.1 C36.17,44.28 50.31,36.48 56.27,16.31" id="Path"></path>
                        <path d="M0.83,48.06 C6.77055154,48.7621667 12.7742947,48.74202 18.71,48" id="Path"></path>
                        <path d="M18.75,19.28 C18.75,19.28 22.67,14.39 27.29,13.84" id="Path"></path>
                        <path d="M38.05,48.62 C38.05,48.62 44.58,46.75 47.93,41.08" id="Path"></path>
                        <path d="M43.94,20.54 C49.0556229,15.6103766 52.3780846,9.1132745 53.38,2.08" id="Path"></path>
                        <path d="M5,40.41 C5,40.41 19.34,43.11 33.82,31.49" id="Path"></path>
                    </g>
                </g>
                <g id="holder" transform="translate(61.000000, 0.000000)">
                    <g id="holder-2" stroke-width="1.5">
                        <polygon id="Path" fill="#7774FF" points="42.01 176.87 19.58 194.88 0.85 177.06 18.23 153.82"></polygon>
                        <path d="M140.85,30.45 L174,3.13 C176.009698,1.41747035 178.500493,0.369449928 181.13,0.13 C183.393484,-0.118951984 185.655799,0.608480372 187.35,2.13 C190.56,5.18 190.35,10.86 186.94,15.42 L129.38,91.26 C115.03,110.26 99.85,126.14 81.83,143.51 C75.83,149.263333 69.6033333,154.73 63.15,159.91 L42.01,176.91 L18.23,153.82 L39.53,125.33 C57.7784858,102.905618 78.1607412,82.3056752 100.39,63.82 L130.56,38.93" id="Path" fill="#47DDDF"></path>
                    </g>
                    <g id="line" transform="translate(74.000000, 108.000000)" fill="#ECB4D0" stroke-width="0.6">
                        <path d="M20.38,9.05 C14.17,15.98 7.58,22.58 0.3,29.51" id="Path"></path>
                        <path d="M27.46,0.77 C26.0866667,2.45 24.7,4.11666667 23.3,5.77" id="Path"></path>
                    </g>
                    <path d="M183.41,4.41 C183.41,4.41 186.86,7.12 184.99,10.75" id="line-2" stroke-width="1.5"></path>
                    <g id="line-3" transform="translate(107.000000, 70.000000)" stroke-width="1.5">
                        <line x1="3.14" y1="10.21" x2="11.23" y2="10.9" id="Path"></line>
                        <line x1="0.93" y1="5.17" x2="14.65" y2="6.33" id="Path"></line>
                        <line x1="5.95" y1="0.74" x2="10.48" y2="1.13" id="Path"></line>
                    </g>
                </g>
            </g>
            <g id="pencil" stroke-width="1.5">
                <g id="middle_yellow_part" transform="translate(41.000000, 36.000000)">
                    <path d="M190.84,164.57 C190.746678,164.625151 190.637161,164.646347 190.53,164.63 C174.39,162.82 177.32,174.85 178.37,178.04 C178.425322,178.206863 178.388951,178.390519 178.274208,178.523702 C178.159465,178.656886 177.983211,178.720027 177.81,178.69 C161.53,176.88 164.65,189.13 165.67,192.18 C165.235202,191.874197 164.820976,191.540143 164.43,191.18 L0.28,42.74 L38.11,0.91 L202.2,149.3 C202.64,149.71 203.06,150.14 203.47,150.59 C187.08,148.66 190,160.77 191.09,164 C191.164621,164.231456 191.058196,164.482619 190.84,164.59" id="Path" fill="#FFFEAA"></path>
                    <line x1="47.61" y1="60.29" x2="12.84" y2="28.85" id="Path"></line>
                    <line x1="178.35" y1="178.53" x2="58.57" y2="70.21" id="Path"></line>
                    <line x1="145.39" y1="123.36" x2="25.45" y2="14.9" id="Path"></line>
                    <line x1="191.16" y1="164.61" x2="155.65" y2="132.49" id="Path"></line>
                </g>
                <g id="washer">
                    <path d="M10.2596282,16.0592655 L47.8496282,16.0592655 C52.6268913,16.0592655 56.4996282,19.9320024 56.4996282,24.7092655 L56.4996282,43.2692655 L1.60962822,43.2692655 L1.60962822,24.7092655 C1.60962822,19.9320024 5.48236513,16.0592655 10.2596282,16.0592655 Z" id="Path" fill="#FF5986" transform="translate(29.054628, 29.664265) rotate(-47.880000) translate(-29.054628, -29.664265) "></path>
                    <path d="M12.19,44.41 C9.8938857,42.3327497 9.71485899,38.7880208 11.79,36.49" id="Path"></path>
                    <path d="M34.12,11.8 C36.1933497,9.53003172 39.7074464,9.35165118 42,11.4" id="Path"></path>
                </g>
                <g id="white_metal_part" transform="translate(18.000000, 15.000000)">
                    <rect id="Rectangle" fill="#FFFFFF" transform="translate(31.484858, 33.499551) rotate(-47.880000) translate(-31.484858, -33.499551) " x="0.279858256" y="19.3095507" width="62.41" height="28.38" rx="3.81"></rect>
                    <g id="line-4" transform="translate(20.000000, 27.000000)">
                        <line x1="16.3" y1="9.76" x2="19.33" y2="10.46" id="Path"></line>
                        <line x1="0.44" y1="6.09" x2="12.35" y2="8.85" id="Path"></line>
                        <line x1="9.59" y1="0.1" x2="16.82" y2="1.77" id="Path"></line>
                    </g>
                </g>
                <g id="upper_pencil_part" transform="translate(205.000000, 186.000000)">
                    <path d="M50.28,30.87 L56,49.74 C56.3845261,50.9084321 56.1099628,52.1933995 55.2814918,53.1026463 C54.4530209,54.0118932 53.1990651,54.4044756 52,54.13 L32.83,50.21 L50.28,30.87 Z" id="Path" fill="#FFE483"></path>
                    <path d="M39.47,0.59 C41.0986311,2.40924782 42.3162496,4.55798646 43.04,6.89 L50.28,30.89 L32.79,50.23 L8.34,45.23 C5.91694573,44.751844 3.63540465,43.7256636 1.67,42.23 C0.67,39.18 -2.47,26.91 13.83,28.75 C14.26,28.75 14.51,28.51 14.38,28.11 C13.38,24.92 10.31,12.69 26.9,14.73 C27.14,14.73 27.29,14.6 27.2,14.37 C26.3,11.78 22.41,-1.42 39.47,0.59 Z" id="Path" fill="#FFFFFF"></path>
                    <path d="M31.09,11.47 C31.09,11.47 31.29,5.79 36.93,5.02" id="Path"></path>
                </g>
            </g>
        </g>
    </g>
</svg>